<svg xmlns="http://www.w3.org/2000/svg" viewBox="0 0 256 256" width="256" height="256" role="img" aria-label="Sitemap Tracker"><defs><linearGradient id="bg" x1="0" y1="0" x2="0" y2="1"><stop offset="0" stop-color="#101c1a"/><stop offset="1" stop-color="#090d11"/></linearGradient><clipPath id="tile"><rect width="256" height="256" rx="56.32" ry="56.32"/></clipPath></defs><g clip-path="url(#tile)"><rect width="256" height="256" fill="url(#bg)"/><g stroke="#2d9c8e" stroke-width="9.0" stroke-linecap="round"><line x1="128.0" y1="128.0" x2="128.00" y2="52.00"/><line x1="128.0" y1="128.0" x2="193.82" y2="90.00"/><line x1="128.0" y1="128.0" x2="193.82" y2="166.00"/><line x1="128.0" y1="128.0" x2="128.00" y2="204.00"/><line x1="128.0" y1="128.0" x2="62.18" y2="166.00"/><line x1="128.0" y1="128.0" x2="62.18" y2="90.00"/></g><circle cx="128.00" cy="52.00" r="18.88" fill="#090d11"/><circle cx="128.00" cy="52.00" r="16.00" fill="#2dd4bf"/><circle cx="193.82" cy="90.00" r="18.88" fill="#090d11"/><circle cx="193.82" cy="90.00" r="16.00" fill="#22d3ee"/><circle cx="193.82" cy="166.00" r="18.88" fill="#090d11"/><circle cx="193.82" cy="166.00" r="16.00" fill="#4ade80"/><circle cx="128.00" cy="204.00" r="18.88" fill="#090d11"/><circle cx="128.00" cy="204.00" r="16.00" fill="#fbbf24"/><circle cx="62.18" cy="166.00" r="18.88" fill="#090d11"/><circle cx="62.18" cy="166.00" r="16.00" fill="#a78bfa"/><circle cx="62.18" cy="90.00" r="18.88" fill="#090d11"/><circle cx="62.18" cy="90.00" r="16.00" fill="#f45a5a"/><circle cx="128.00" cy="128.00" r="33.04" fill="#090d11"/><circle cx="128.00" cy="128.00" r="28.00" fill="#ebf0ee"/></g></svg>
