<svg xmlns="http://www.w3.org/2000/svg" viewBox="0 0 256 256" width="256" height="256" role="img" aria-label="Sitemap Tracker"><g><g stroke="#34b4a3" stroke-width="9.0" stroke-linecap="round"><line x1="128.00" y1="86.50" x2="128.00" y2="75.50"/><line x1="163.94" y1="107.25" x2="173.47" y2="101.75"/><line x1="163.94" y1="148.75" x2="173.47" y2="154.25"/><line x1="128.00" y1="169.50" x2="128.00" y2="180.50"/><line x1="92.06" y1="148.75" x2="82.53" y2="154.25"/><line x1="92.06" y1="107.25" x2="82.53" y2="101.75"/></g><circle cx="128.00" cy="52.00" r="16.00" fill="#2dd4bf"/><circle cx="193.82" cy="90.00" r="16.00" fill="#22d3ee"/><circle cx="193.82" cy="166.00" r="16.00" fill="#4ade80"/><circle cx="128.00" cy="204.00" r="16.00" fill="#fbbf24"/><circle cx="62.18" cy="166.00" r="16.00" fill="#a78bfa"/><circle cx="62.18" cy="90.00" r="16.00" fill="#f45a5a"/><circle cx="128.0" cy="128.0" r="34.0" fill="#14b8a6"/><g stroke="#e0fffa" stroke-width="2.4" fill="none" stroke-linecap="round"><line x1="94.0" y1="128.0" x2="162.0" y2="128.0"/><line x1="128.0" y1="94.0" x2="128.0" y2="162.0"/><ellipse cx="128.0" cy="128.0" rx="17.00" ry="34.0"/><line x1="98.56" y1="111.00" x2="157.44" y2="111.00"/><line x1="98.56" y1="145.00" x2="157.44" y2="145.00"/></g></g></svg>
